<?xml version="1.0" encoding="UTF-8" standalone="no"?>
<!DOCTYPE svg PUBLIC "-//W3C//DTD SVG 1.1//EN"
 "http://www.w3.org/Graphics/SVG/1.1/DTD/svg11.dtd">
<!-- Generated by graphviz version 2.40.1 (20161225.0304)
 -->
<!-- Title: AEB Pages: 1 -->
<svg width="2192pt" height="938pt"
 viewBox="0.00 0.00 2192.40 938.00" xmlns="http://www.w3.org/2000/svg" xmlns:xlink="http://www.w3.org/1999/xlink">
<g id="graph0" class="graph" transform="scale(1 1) rotate(0) translate(4 934)">
<title>AEB</title>
<polygon fill="#ffffff" stroke="transparent" points="-4,4 -4,-934 2188.4005,-934 2188.4005,4 -4,4"/>
<g id="clust1" class="cluster">
<title>cluster_AebController</title>
<polygon fill="#d3d3d3" stroke="#000000" points="616.2251,-260.4 616.2251,-362 1655.2251,-362 1655.2251,-260.4 616.2251,-260.4"/>
<text text-anchor="middle" x="1135.7251" y="-345.4" font-family="Times,serif" font-size="14.00" fill="#000000">AEB Controller</text>
</g>
<g id="clust2" class="cluster">
<title>cluster_DebugPC</title>
<polygon fill="#00ff00" stroke="#00ff00" points="189.2251,-260.4 189.2251,-362 546.2251,-362 546.2251,-260.4 189.2251,-260.4"/>
<text text-anchor="middle" x="367.7251" y="-345.4" font-family="Times,serif" font-size="14.00" fill="#000000">Windows PC</text>
</g>
<!-- ColorScheme -->
<g id="node1" class="node">
<title>ColorScheme</title>
<polygon fill="none" stroke="#000000" points="1247.522,-830.3 1247.522,-929.5 1706.9282,-929.5 1706.9282,-830.3 1247.522,-830.3"/>
<text text-anchor="middle" x="1293.6244" y="-875.7" font-family="Times,serif" font-size="14.00" fill="#000000">ColorScheme</text>
<polyline fill="none" stroke="#000000" points="1339.7268,-830.3 1339.7268,-929.5 "/>
<text text-anchor="middle" x="1408.5701" y="-912.9" font-family="Times,serif" font-size="14.00" fill="#000000">Red : high risk</text>
<polyline fill="none" stroke="#000000" points="1339.7268,-904.7 1477.4134,-904.7 "/>
<text text-anchor="middle" x="1408.5701" y="-888.1" font-family="Times,serif" font-size="14.00" fill="#000000">Yellow : lack of test</text>
<polyline fill="none" stroke="#000000" points="1339.7268,-879.9 1477.4134,-879.9 "/>
<text text-anchor="middle" x="1408.5701" y="-863.3" font-family="Times,serif" font-size="14.00" fill="#000000">Green: low risk</text>
<polyline fill="none" stroke="#000000" points="1339.7268,-855.1 1477.4134,-855.1 "/>
<text text-anchor="middle" x="1408.5701" y="-838.5" font-family="Times,serif" font-size="14.00" fill="#000000">Cyan: To Be Decided</text>
<polyline fill="none" stroke="#000000" points="1477.4134,-830.3 1477.4134,-929.5 "/>
<text text-anchor="middle" x="1499.8026" y="-875.7" font-family="Times,serif" font-size="14.00" fill="#000000">Style</text>
<polyline fill="none" stroke="#000000" points="1522.1918,-830.3 1522.1918,-929.5 "/>
<text text-anchor="middle" x="1614.56" y="-908.9" font-family="Times,serif" font-size="14.00" fill="#000000">Solid : implemented</text>
<polyline fill="none" stroke="#000000" points="1522.1918,-896.7 1706.9282,-896.7 "/>
<text text-anchor="middle" x="1614.56" y="-876.1" font-family="Times,serif" font-size="14.00" fill="#000000">dashed : not implemented</text>
<polyline fill="none" stroke="#000000" points="1522.1918,-863.9 1706.9282,-863.9 "/>
<text text-anchor="middle" x="1614.56" y="-843.3" font-family="Times,serif" font-size="14.00" fill="#000000">dotted : debug &amp; maintanence</text>
</g>
<!-- CAN0 -->
<g id="node2" class="node">
<title>CAN0</title>
<ellipse fill="none" stroke="#000000" cx="762.2251" cy="-286.4" rx="36.4975" ry="18"/>
<text text-anchor="middle" x="762.2251" y="-282.2" font-family="Times,serif" font-size="14.00" fill="#000000">CAN0</text>
</g>
<!-- CANBox -->
<g id="node15" class="node">
<title>CANBox</title>
<ellipse fill="none" stroke="#000000" cx="245.2251" cy="-286.4" rx="47.5332" ry="18"/>
<text text-anchor="middle" x="245.2251" y="-282.2" font-family="Times,serif" font-size="14.00" fill="#000000">CANBox</text>
</g>
<!-- CAN0&#45;&gt;CANBox -->
<g id="edge10" class="edge">
<title>CAN0&#45;&gt;CANBox</title>
<path fill="none" stroke="#000000" stroke-dasharray="1,5" d="M756.0931,-304.4537C745.6881,-331.6544 721.6501,-381.7759 681.0165,-398.8 602.8097,-431.566 374.5706,-404.5482 301.2251,-362 282.0325,-350.8663 267.4402,-330.2612 257.9702,-313.3716"/>
<polygon fill="#000000" stroke="#000000" points="261.0179,-311.6479 253.2395,-304.4544 254.8342,-314.9285 261.0179,-311.6479"/>
<text text-anchor="middle" x="646.2251" y="-416.2" font-family="Times,serif" font-size="14.00" fill="#000000">Vehicle info</text>
</g>
<!-- StereoCamera -->
<g id="node27" class="node">
<title>StereoCamera</title>
<ellipse fill="none" stroke="#000000" cx="789.2251" cy="-514" rx="65.9658" ry="18"/>
<text text-anchor="middle" x="789.2251" y="-509.8" font-family="Times,serif" font-size="14.00" fill="#000000">StereoCamera</text>
</g>
<!-- CAN0&#45;&gt;StereoCamera -->
<g id="edge24" class="edge">
<title>CAN0&#45;&gt;StereoCamera</title>
<path fill="none" stroke="#000000" d="M764.3618,-304.4117C769.0385,-343.8348 780.2129,-438.0306 785.8503,-485.5518"/>
<polygon fill="#000000" stroke="#000000" points="782.4075,-486.2412 787.0612,-495.7593 789.3587,-485.4166 782.4075,-486.2412"/>
<text text-anchor="middle" x="829.3068" y="-433" font-family="Times,serif" font-size="14.00" fill="#000000">speed,</text>
<text text-anchor="middle" x="829.3068" y="-416.2" font-family="Times,serif" font-size="14.00" fill="#000000"> LeftFlagTemp,</text>
<text text-anchor="middle" x="829.3068" y="-399.4" font-family="Times,serif" font-size="14.00" fill="#000000"> RightFlagTemp</text>
</g>
<!-- CAN1 -->
<g id="node3" class="node">
<title>CAN1</title>
<ellipse fill="none" stroke="#000000" cx="852.2251" cy="-286.4" rx="36.4975" ry="18"/>
<text text-anchor="middle" x="852.2251" y="-282.2" font-family="Times,serif" font-size="14.00" fill="#000000">CAN1</text>
</g>
<!-- CAN2 -->
<g id="node4" class="node">
<title>CAN2</title>
<ellipse fill="none" stroke="#000000" cx="1611.2251" cy="-286.4" rx="36.4975" ry="18"/>
<text text-anchor="middle" x="1611.2251" y="-282.2" font-family="Times,serif" font-size="14.00" fill="#000000">CAN2</text>
</g>
<!-- CAN3 -->
<g id="node5" class="node">
<title>CAN3</title>
<ellipse fill="none" stroke="#000000" cx="1521.2251" cy="-286.4" rx="36.4975" ry="18"/>
<text text-anchor="middle" x="1521.2251" y="-282.2" font-family="Times,serif" font-size="14.00" fill="#000000">CAN3</text>
</g>
<!-- ProportionalValve -->
<g id="node29" class="node">
<title>ProportionalValve</title>
<ellipse fill="#00ff00" stroke="#00ff00" cx="1571.2251" cy="-110.7" rx="82.243" ry="18"/>
<text text-anchor="middle" x="1571.2251" y="-106.5" font-family="Times,serif" font-size="14.00" fill="#000000">ProportionalValve</text>
</g>
<!-- CAN3&#45;&gt;ProportionalValve -->
<g id="edge28" class="edge">
<title>CAN3&#45;&gt;ProportionalValve</title>
<path fill="none" stroke="#000000" d="M1535.6385,-269.7866C1539.9848,-263.9916 1544.3579,-257.2233 1547.2251,-250.4 1562.5259,-213.9881 1568.0746,-168.3229 1570.0852,-139.3187"/>
<polygon fill="#000000" stroke="#000000" points="1573.5946,-139.2628 1570.6955,-129.0724 1566.607,-138.8465 1573.5946,-139.2628"/>
<text text-anchor="middle" x="1699.2426" y="-204.2" font-family="Times,serif" font-size="14.00" fill="#000000">m_pressure &#160;= (uint16_t)(ret_pressure * 128.0);</text>
</g>
<!-- CAN4 -->
<g id="node6" class="node">
<title>CAN4</title>
<ellipse fill="none" stroke="#000000" cx="1134.2251" cy="-286.4" rx="36.4975" ry="18"/>
<text text-anchor="middle" x="1134.2251" y="-282.2" font-family="Times,serif" font-size="14.00" fill="#000000">CAN4</text>
</g>
<!-- Display -->
<g id="node28" class="node">
<title>Display</title>
<polygon fill="#adff2f" stroke="#adff2f" points="607.4516,-92.7 607.4516,-128.7 666.9986,-128.7 666.9986,-92.7 607.4516,-92.7"/>
<text text-anchor="middle" x="637.2251" y="-106.5" font-family="Times,serif" font-size="14.00" fill="#000000">Display</text>
</g>
<!-- CAN4&#45;&gt;Display -->
<g id="edge26" class="edge">
<title>CAN4&#45;&gt;Display</title>
<path fill="none" stroke="#000000" d="M1113.249,-271.3239C1105.9913,-266.9334 1097.5755,-262.7018 1089.2251,-260.4 1070.1121,-255.1316 389.4859,-264.5168 375.5655,-250.4 349.3524,-223.8171 352.0753,-195.417 375.5655,-166.4 402.958,-132.5626 530.5523,-118.4135 596.9015,-113.263"/>
<polygon fill="#000000" stroke="#000000" points="597.2867,-116.7441 606.9996,-112.512 596.7675,-109.7634 597.2867,-116.7441"/>
<text text-anchor="middle" x="751.5549" y="-237.8" font-family="Times,serif" font-size="14.00" fill="#000000">FrontCameraStatus, MillimeterWaveRadarStatus, UltrasonicRadarStatus, </text>
<text text-anchor="middle" x="751.5549" y="-221" font-family="Times,serif" font-size="14.00" fill="#000000"> &#160;&#160;&#160;ValveStatus, VehicleCANBusStatus, VehicleSpeedStatus, </text>
<text text-anchor="middle" x="751.5549" y="-204.2" font-family="Times,serif" font-size="14.00" fill="#000000"> &#160;&#160;&#160;Module4GStatus, GPSStatus, </text>
<text text-anchor="middle" x="751.5549" y="-187.4" font-family="Times,serif" font-size="14.00" fill="#000000"> &#160;&#160;&#160;AEBSTaskStatus, FCWTaskStatus, LDWTaskStatus, SSSTaskStatus, CMSTaskStatus, </text>
<text text-anchor="middle" x="751.5549" y="-170.6" font-family="Times,serif" font-size="14.00" fill="#000000"> &#160;&#160;&#160;FCWLevel, LDW, HMWGrade, DigitalDisplay, HMWTime, LengthwaysRelativeSpeed, TTC, LengthwaysDistance, ObstacleType</text>
</g>
<!-- CAN5 -->
<g id="node7" class="node">
<title>CAN5</title>
<ellipse fill="none" stroke="#000000" cx="942.2251" cy="-286.4" rx="36.4975" ry="18"/>
<text text-anchor="middle" x="942.2251" y="-282.2" font-family="Times,serif" font-size="14.00" fill="#000000">CAN5</text>
</g>
<!-- UART0 -->
<g id="node8" class="node">
<title>UART0</title>
<ellipse fill="none" stroke="#000000" cx="1038.2251" cy="-286.4" rx="42.2952" ry="18"/>
<text text-anchor="middle" x="1038.2251" y="-282.2" font-family="Times,serif" font-size="14.00" fill="#000000">UART0</text>
</g>
<!-- EC200U -->
<g id="node20" class="node">
<title>EC200U</title>
<polygon fill="#ffff00" stroke="#ffff00" points="160.8913,-73.5 160.8913,-147.9 267.5589,-147.9 267.5589,-73.5 160.8913,-73.5"/>
<text text-anchor="middle" x="193.3892" y="-106.5" font-family="Times,serif" font-size="14.00" fill="#000000">EC200U</text>
<polyline fill="none" stroke="#ffff00" points="225.8871,-73.5 225.8871,-147.9 "/>
<text text-anchor="middle" x="246.723" y="-131.3" font-family="Times,serif" font-size="14.00" fill="#000000">4G</text>
<polyline fill="none" stroke="#ffff00" points="225.8871,-123.1 267.5589,-123.1 "/>
<text text-anchor="middle" x="246.723" y="-106.5" font-family="Times,serif" font-size="14.00" fill="#000000">BT</text>
<polyline fill="none" stroke="#ffff00" points="225.8871,-98.3 267.5589,-98.3 "/>
<text text-anchor="middle" x="246.723" y="-81.7" font-family="Times,serif" font-size="14.00" fill="#000000">GPS</text>
</g>
<!-- UART0&#45;&gt;EC200U -->
<g id="edge2" class="edge">
<title>UART0&#45;&gt;EC200U</title>
<path fill="none" stroke="#000000" stroke-dasharray="5,2" d="M1014.4719,-271.4509C1006.1712,-267.0108 996.5828,-262.7169 987.2251,-260.4 967.9104,-255.6179 286.6877,-262.6022 270.9705,-250.4 240.4191,-226.6811 263.5089,-201.9299 248.2251,-166.4 246.8632,-163.2339 245.3448,-160.0337 243.7263,-156.8522"/>
<polygon fill="#000000" stroke="#000000" points="246.7709,-155.1239 238.9472,-147.9796 240.608,-158.4435 246.7709,-155.1239"/>
<text text-anchor="middle" x="310.8524" y="-204.2" font-family="Times,serif" font-size="14.00" fill="#000000">Vehicle Status</text>
</g>
<!-- UART1 -->
<g id="node9" class="node">
<title>UART1</title>
<ellipse fill="none" stroke="#000000" cx="666.2251" cy="-286.4" rx="42.2952" ry="18"/>
<text text-anchor="middle" x="666.2251" y="-282.2" font-family="Times,serif" font-size="14.00" fill="#000000">UART1</text>
</g>
<!-- USB2UART -->
<g id="node14" class="node">
<title>USB2UART</title>
<ellipse fill="none" stroke="#000000" cx="371.2251" cy="-286.4" rx="60.8544" ry="18"/>
<text text-anchor="middle" x="371.2251" y="-282.2" font-family="Times,serif" font-size="14.00" fill="#000000">USB2UART</text>
</g>
<!-- UART1&#45;&gt;USB2UART -->
<g id="edge18" class="edge">
<title>UART1&#45;&gt;USB2UART</title>
<path fill="none" stroke="#000000" stroke-dasharray="1,5" d="M662.734,-304.3798C656.5825,-330.5299 641.0729,-378.1798 606.8636,-398.8 586.5841,-411.0238 576.9694,-402.5316 553.5866,-398.8 501.6947,-390.5187 485.4609,-390.3645 441.2251,-362 420.8372,-348.9271 402.4342,-328.5347 389.6196,-312.2223"/>
<polygon fill="#000000" stroke="#000000" points="392.2927,-309.9556 383.4469,-304.1243 386.7256,-314.1991 392.2927,-309.9556"/>
<text text-anchor="middle" x="580.2251" y="-416.2" font-family="Times,serif" font-size="14.00" fill="#000000">Log Print</text>
</g>
<!-- UART2 -->
<g id="node10" class="node">
<title>UART2</title>
<ellipse fill="none" stroke="#000000" cx="1230.2251" cy="-286.4" rx="42.2952" ry="18"/>
<text text-anchor="middle" x="1230.2251" y="-282.2" font-family="Times,serif" font-size="14.00" fill="#000000">UART2</text>
</g>
<!-- ext4GModule -->
<g id="node23" class="node">
<title>ext4GModule</title>
<ellipse fill="none" stroke="#000000" cx="1125.2251" cy="-110.7" rx="64.8506" ry="18"/>
<text text-anchor="middle" x="1125.2251" y="-106.5" font-family="Times,serif" font-size="14.00" fill="#000000">ext4GModule</text>
</g>
<!-- UART2&#45;&gt;ext4GModule -->
<g id="edge4" class="edge">
<title>UART2&#45;&gt;ext4GModule</title>
<path fill="none" stroke="#000000" d="M1244.6885,-269.1498C1248.5597,-263.5238 1252.2225,-257.0141 1254.2251,-250.4 1265.0437,-214.6686 1274.7345,-197.5952 1254.2251,-166.4 1239.7915,-144.4462 1214.6696,-131.1061 1190.4076,-123.0176"/>
<polygon fill="#000000" stroke="#000000" points="1191.4054,-119.6627 1180.8183,-120.0663 1189.3463,-126.353 1191.4054,-119.6627"/>
<text text-anchor="middle" x="1306.8524" y="-204.2" font-family="Times,serif" font-size="14.00" fill="#000000">Vehicle Status</text>
</g>
<!-- UART4 -->
<g id="node11" class="node">
<title>UART4</title>
<ellipse fill="none" stroke="#000000" cx="1332.2251" cy="-286.4" rx="42.2952" ry="18"/>
<text text-anchor="middle" x="1332.2251" y="-282.2" font-family="Times,serif" font-size="14.00" fill="#000000">UART4</text>
</g>
<!-- GPIOs -->
<g id="node12" class="node">
<title>GPIOs</title>
<ellipse fill="none" stroke="#000000" cx="1429.2251" cy="-286.4" rx="37.1367" ry="18"/>
<text text-anchor="middle" x="1429.2251" y="-282.2" font-family="Times,serif" font-size="14.00" fill="#000000">GPIOs</text>
</g>
<!-- BrakeLights -->
<g id="node19" class="node">
<title>BrakeLights</title>
<ellipse fill="#adff2f" stroke="#adff2f" cx="1412.2251" cy="-110.7" rx="58.5463" ry="18"/>
<text text-anchor="middle" x="1412.2251" y="-106.5" font-family="Times,serif" font-size="14.00" fill="#000000">BrakeLights</text>
</g>
<!-- GPIOs&#45;&gt;BrakeLights -->
<g id="edge17" class="edge">
<title>GPIOs&#45;&gt;BrakeLights</title>
<path fill="none" stroke="#000000" d="M1427.4698,-268.2588C1424.5099,-237.6674 1418.5047,-175.6017 1414.9792,-139.1646"/>
<polygon fill="#000000" stroke="#000000" points="1418.4177,-138.3589 1413.9708,-128.7425 1411.4502,-139.0331 1418.4177,-138.3589"/>
<text text-anchor="middle" x="1484.0097" y="-204.2" font-family="Times,serif" font-size="14.00" fill="#000000">stoplight+, stoplight&#45;</text>
</g>
<!-- Ethernet -->
<g id="node13" class="node">
<title>Ethernet</title>
<ellipse fill="none" stroke="#000000" cx="494.2251" cy="-286.4" rx="43.9983" ry="18"/>
<text text-anchor="middle" x="494.2251" y="-282.2" font-family="Times,serif" font-size="14.00" fill="#000000">Ethernet</text>
</g>
<!-- USB2UART&#45;&gt;UART1 -->
<g id="edge19" class="edge">
<title>USB2UART&#45;&gt;UART1</title>
<path fill="none" stroke="#000000" stroke-dasharray="1,5" d="M377.703,-304.5638C388.2211,-330.9484 411.7784,-378.8942 450.0515,-398.8 488.83,-418.9687 507.8218,-415.0501 548.3987,-398.8 591.7359,-381.4445 628.1891,-339.7125 648.6079,-312.2726"/>
<polygon fill="#000000" stroke="#000000" points="651.6302,-314.0664 654.6623,-303.9147 645.9613,-309.9598 651.6302,-314.0664"/>
<text text-anchor="middle" x="499.2251" y="-416.2" font-family="Times,serif" font-size="14.00" fill="#000000">Firmware Update</text>
</g>
<!-- CANBox&#45;&gt;CAN1 -->
<g id="edge9" class="edge">
<title>CANBox&#45;&gt;CAN1</title>
<path fill="none" stroke="#000000" stroke-dasharray="1,5" d="M253.0128,-304.2288C261.8812,-322.1676 278.187,-348.9845 301.2251,-362 450.9434,-446.5841 514.6153,-390.6129 686.3797,-398.8 721.7577,-400.4863 732.983,-411.4358 766.0705,-398.8 803.876,-384.3624 828.6822,-342.0264 841.5768,-313.6343"/>
<polygon fill="#000000" stroke="#000000" points="844.882,-314.8093 845.6428,-304.2418 838.4581,-312.0284 844.882,-314.8093"/>
<text text-anchor="middle" x="726.2251" y="-416.2" font-family="Times,serif" font-size="14.00" fill="#000000">config params</text>
</g>
<!-- mmWaveRadar -->
<g id="node16" class="node">
<title>mmWaveRadar</title>
<ellipse fill="#00ffff" stroke="#00ffff" cx="1225.2251" cy="-514" rx="71.7699" ry="18"/>
<text text-anchor="middle" x="1225.2251" y="-509.8" font-family="Times,serif" font-size="14.00" fill="#000000">mmWaveRadar</text>
</g>
<!-- mmWaveRadar&#45;&gt;CAN1 -->
<g id="edge11" class="edge">
<title>mmWaveRadar&#45;&gt;CAN1</title>
<path fill="none" stroke="#000000" stroke-dasharray="5,2" d="M1225.22,-495.8775C1224.7877,-460.9387 1221.6722,-386.2665 1203.2251,-370 1190.47,-358.7526 911.8977,-370.5972 897.2251,-362 879.3784,-351.543 867.8208,-330.9941 860.8926,-313.9564"/>
<polygon fill="#000000" stroke="#000000" points="864.1135,-312.5768 857.3357,-304.4335 857.556,-315.0261 864.1135,-312.5768"/>
<text text-anchor="middle" x="1299.0607" y="-441.4" font-family="Times,serif" font-size="14.00" fill="#000000">x, y, z,</text>
<text text-anchor="middle" x="1299.0607" y="-424.6" font-family="Times,serif" font-size="14.00" fill="#000000"> &#160;&#160;&#160;range, velocity, bearing,</text>
<text text-anchor="middle" x="1299.0607" y="-407.8" font-family="Times,serif" font-size="14.00" fill="#000000"> &#160;&#160;&#160;doppler_bin, intensity,</text>
<text text-anchor="middle" x="1299.0607" y="-391" font-family="Times,serif" font-size="14.00" fill="#000000"> &#160;&#160;&#160;</text>
</g>
<!-- SonicRadar -->
<g id="node17" class="node">
<title>SonicRadar</title>
<ellipse fill="#ffff00" stroke="#ffff00" cx="1467.2251" cy="-514" rx="56.1782" ry="18"/>
<text text-anchor="middle" x="1467.2251" y="-509.8" font-family="Times,serif" font-size="14.00" fill="#000000">SonicRadar</text>
</g>
<!-- SonicRadar&#45;&gt;CAN5 -->
<g id="edge13" class="edge">
<title>SonicRadar&#45;&gt;CAN5</title>
<path fill="none" stroke="#000000" d="M1430.9752,-499.9876C1417.7091,-493.1132 1403.7959,-483.5204 1394.9459,-470.8 1368.9227,-433.396 1410.9623,-399.4889 1376.2251,-370 1359.7465,-356.011 1005.9055,-372.8756 987.2251,-362 969.3493,-351.5928 957.7934,-331.041 950.8732,-313.9896"/>
<polygon fill="#000000" stroke="#000000" points="954.0929,-312.6063 947.3217,-304.4576 947.5334,-315.0503 954.0929,-312.6063"/>
<text text-anchor="middle" x="1451.3647" y="-433" font-family="Times,serif" font-size="14.00" fill="#000000">Company, </text>
<text text-anchor="middle" x="1451.3647" y="-416.2" font-family="Times,serif" font-size="14.00" fill="#000000">Urader_work_stata, </text>
<text text-anchor="middle" x="1451.3647" y="-399.4" font-family="Times,serif" font-size="14.00" fill="#000000">distance</text>
</g>
<!-- SonicRadar&#45;&gt;UART2 -->
<g id="edge12" class="edge">
<title>SonicRadar&#45;&gt;UART2</title>
<path fill="none" stroke="#000000" stroke-dasharray="5,2" d="M1491.8324,-497.4556C1500.26,-490.3473 1508.7002,-481.2569 1513.2251,-470.8 1531.0166,-429.6843 1544.3528,-402.2196 1513.2251,-370 1495.3037,-351.4499 1303.7874,-374.4991 1281.2251,-362 1262.4703,-351.6102 1249.2863,-331.0573 1241.0275,-314.0011"/>
<polygon fill="#000000" stroke="#000000" points="1244.0296,-312.1441 1236.7291,-304.466 1237.6481,-315.0209 1244.0296,-312.1441"/>
<text text-anchor="middle" x="1588.3647" y="-433" font-family="Times,serif" font-size="14.00" fill="#000000">Company, </text>
<text text-anchor="middle" x="1588.3647" y="-416.2" font-family="Times,serif" font-size="14.00" fill="#000000">Urader_work_stata, </text>
<text text-anchor="middle" x="1588.3647" y="-399.4" font-family="Times,serif" font-size="14.00" fill="#000000">distance</text>
</g>
<!-- SignalVehicle -->
<g id="node18" class="node">
<title>SignalVehicle</title>
<ellipse fill="#adff2f" stroke="#adff2f" cx="1829.2251" cy="-751.7" rx="65.9871" ry="18"/>
<text text-anchor="middle" x="1829.2251" y="-747.5" font-family="Times,serif" font-size="14.00" fill="#000000">SignalVehicle</text>
</g>
<!-- SignalVehicle&#45;&gt;GPIOs -->
<g id="edge15" class="edge">
<title>SignalVehicle&#45;&gt;GPIOs</title>
<path fill="none" stroke="#000000" d="M1824.106,-733.6403C1813.9023,-697.1506 1790.7743,-611.9183 1776.3625,-539.2 1761.5827,-464.6251 1808.0697,-420.4831 1751.2251,-370 1728.3689,-349.7016 1502.7252,-377.2374 1476.2251,-362 1458.0816,-351.5676 1445.9815,-331.0172 1438.6081,-313.9728"/>
<polygon fill="#000000" stroke="#000000" points="1441.7624,-312.434 1434.803,-304.4454 1435.2617,-315.0303 1441.7624,-312.434"/>
<text text-anchor="middle" x="1844.6564" y="-526.6" font-family="Times,serif" font-size="14.00" fill="#000000">speed, </text>
<text text-anchor="middle" x="1844.6564" y="-509.8" font-family="Times,serif" font-size="14.00" fill="#000000"> &#160;&#160;&#160;TurnLeft, TurnRight, </text>
<text text-anchor="middle" x="1844.6564" y="-493" font-family="Times,serif" font-size="14.00" fill="#000000"> &#160;&#160;&#160;Back, Stop</text>
</g>
<!-- VehicleCAN -->
<g id="node26" class="node">
<title>VehicleCAN</title>
<ellipse fill="none" stroke="#000000" cx="1983.2251" cy="-514" rx="61.3935" ry="18"/>
<text text-anchor="middle" x="1983.2251" y="-509.8" font-family="Times,serif" font-size="14.00" fill="#000000">VehicleCAN</text>
</g>
<!-- SignalVehicle&#45;&gt;VehicleCAN -->
<g id="edge16" class="edge">
<title>SignalVehicle&#45;&gt;VehicleCAN</title>
<path fill="none" stroke="#000000" d="M1840.8001,-733.8339C1867.7334,-692.2622 1934.7044,-588.892 1966.2629,-540.1813"/>
<polygon fill="#000000" stroke="#000000" points="1969.2258,-542.0449 1971.7258,-531.7492 1963.351,-538.2387 1969.2258,-542.0449"/>
<text text-anchor="middle" x="1974.412" y="-628.6" font-family="Times,serif" font-size="14.00" fill="#000000">speed...</text>
</g>
<!-- EC200U&#45;&gt;UART0 -->
<g id="edge1" class="edge">
<title>EC200U&#45;&gt;UART0</title>
<path fill="none" stroke="#000000" d="M169.024,-148.2099C164.5843,-153.8336 160.7333,-159.934 158.0385,-166.4 143.6767,-200.8604 131.7995,-223.8427 158.0385,-250.4 174.2279,-266.7859 964.8604,-254.8852 987.2251,-260.4 993.3675,-261.9146 999.6086,-264.2836 1005.5194,-266.9884"/>
<polygon fill="#000000" stroke="#000000" points="1003.9619,-270.1227 1014.4745,-271.4406 1007.0783,-263.8546 1003.9619,-270.1227"/>
<text text-anchor="middle" x="202.3184" y="-212.6" font-family="Times,serif" font-size="14.00" fill="#000000">Firmware OTA,</text>
<text text-anchor="middle" x="202.3184" y="-195.8" font-family="Times,serif" font-size="14.00" fill="#000000"> &#160;&#160;&#160;config param</text>
</g>
<!-- Cloud -->
<g id="node22" class="node">
<title>Cloud</title>
<ellipse fill="none" stroke="#000000" cx="698.2251" cy="-18" rx="34.7922" ry="18"/>
<text text-anchor="middle" x="698.2251" y="-13.8" font-family="Times,serif" font-size="14.00" fill="#000000">Cloud</text>
</g>
<!-- EC200U&#45;&gt;Cloud -->
<g id="edge3" class="edge">
<title>EC200U&#45;&gt;Cloud</title>
<path fill="none" stroke="#000000" stroke-dasharray="5,2" d="M267.8708,-100.4253C364.8199,-81.8567 567.3168,-43.0727 655.5733,-26.169"/>
<polygon fill="#000000" stroke="#000000" points="656.3426,-29.5854 665.5057,-24.2667 655.0258,-22.7104 656.3426,-29.5854"/>
</g>
<!-- MobilePhone -->
<g id="node21" class="node">
<title>MobilePhone</title>
<polygon fill="#ffff00" stroke="#ffff00" points="274.9116,-726.9 274.9116,-776.5 479.5386,-776.5 479.5386,-726.9 274.9116,-726.9"/>
<text text-anchor="middle" x="330.1497" y="-747.5" font-family="Times,serif" font-size="14.00" fill="#000000">(Android) Phone</text>
<polyline fill="none" stroke="#ffff00" points="385.3878,-726.9 385.3878,-776.5 "/>
<text text-anchor="middle" x="432.4632" y="-759.9" font-family="Times,serif" font-size="14.00" fill="#000000">Config Param</text>
<polyline fill="none" stroke="#ffff00" points="385.3878,-751.7 479.5386,-751.7 "/>
<text text-anchor="middle" x="432.4632" y="-735.1" font-family="Times,serif" font-size="14.00" fill="#000000">Debug View</text>
</g>
<!-- MobilePhone&#45;&gt;EC200U -->
<g id="edge7" class="edge">
<title>MobilePhone&#45;&gt;EC200U</title>
<path fill="none" stroke="#000000" stroke-dasharray="5,2" d="M320.3158,-726.8007C236.8339,-686.7301 84.3609,-599.2008 22.2251,-470.8 -40.8403,-340.4781 41.8809,-274.4687 138.2251,-166.4 142.6866,-161.3955 147.6676,-156.5658 152.8872,-151.9832"/>
<polygon fill="#000000" stroke="#000000" points="155.2593,-154.5618 160.6727,-145.4543 150.7613,-149.1981 155.2593,-154.5618"/>
</g>
<!-- BlueTooth -->
<g id="node24" class="node">
<title>BlueTooth</title>
<ellipse fill="none" stroke="#000000" cx="1667.2251" cy="-514" rx="52.1886" ry="18"/>
<text text-anchor="middle" x="1667.2251" y="-509.8" font-family="Times,serif" font-size="14.00" fill="#000000">BlueTooth</text>
</g>
<!-- MobilePhone&#45;&gt;BlueTooth -->
<g id="edge6" class="edge">
<title>MobilePhone&#45;&gt;BlueTooth</title>
<path fill="none" stroke="#000000" d="M479.6033,-732.9563C681.1465,-696.0368 1143.5585,-611.2294 1532.2251,-539.2 1558.0712,-534.4101 1586.694,-529.072 1610.9081,-524.5462"/>
<polygon fill="#000000" stroke="#000000" points="1611.8083,-527.9387 1620.9947,-522.6603 1610.5218,-521.0579 1611.8083,-527.9387"/>
<text text-anchor="middle" x="1540.7637" y="-695.8" font-family="Times,serif" font-size="14.00" fill="#000000">config params:</text>
<text text-anchor="middle" x="1540.7637" y="-679" font-family="Times,serif" font-size="14.00" fill="#000000"> &#160;&#160;&#160;AEB_WorkMode,</text>
<text text-anchor="middle" x="1540.7637" y="-662.2" font-family="Times,serif" font-size="14.00" fill="#000000"> &#160;&#160;&#160;AEB_DistortionData, </text>
<text text-anchor="middle" x="1540.7637" y="-645.4" font-family="Times,serif" font-size="14.00" fill="#000000"> &#160;&#160;&#160;AEB_VechicleWidth, </text>
<text text-anchor="middle" x="1540.7637" y="-628.6" font-family="Times,serif" font-size="14.00" fill="#000000"> &#160;&#160;&#160;AEB_VechicleKeepdistance,</text>
<text text-anchor="middle" x="1540.7637" y="-611.8" font-family="Times,serif" font-size="14.00" fill="#000000"> &#160;&#160;&#160;AEB_TTC1threshold, AEB_TTC2threshold, </text>
<text text-anchor="middle" x="1540.7637" y="-595" font-family="Times,serif" font-size="14.00" fill="#000000"> &#160;&#160;&#160;AEB_Sensitivity,</text>
<text text-anchor="middle" x="1540.7637" y="-578.2" font-family="Times,serif" font-size="14.00" fill="#000000"> &#160;&#160;&#160;AEB_GearNum,</text>
<text text-anchor="middle" x="1540.7637" y="-561.4" font-family="Times,serif" font-size="14.00" fill="#000000"> &#160;&#160;&#160;AEB_HMW1, AEB_HMW2</text>
</g>
<!-- ext4GModule&#45;&gt;Cloud -->
<g id="edge5" class="edge">
<title>ext4GModule&#45;&gt;Cloud</title>
<path fill="none" stroke="#000000" d="M1074.1431,-99.6103C988.8717,-81.0982 819.1256,-44.247 740.2813,-27.1302"/>
<polygon fill="#000000" stroke="#000000" points="740.742,-23.6488 730.227,-24.9475 739.2568,-30.4894 740.742,-23.6488"/>
</g>
<!-- BlueTooth&#45;&gt;UART4 -->
<g id="edge8" class="edge">
<title>BlueTooth&#45;&gt;UART4</title>
<path fill="none" stroke="#000000" d="M1667.7454,-495.9161C1668.3228,-461.0458 1667.3477,-386.4896 1649.2251,-370 1627.3546,-350.1002 1409.1217,-376.2718 1383.2251,-362 1364.4475,-351.6515 1351.2648,-331.0962 1343.0123,-314.0286"/>
<polygon fill="#000000" stroke="#000000" points="1346.0136,-312.1689 1338.7181,-304.486 1339.6301,-315.0415 1346.0136,-312.1689"/>
<text text-anchor="middle" x="1707.0705" y="-416.2" font-family="Times,serif" font-size="14.00" fill="#000000">config params</text>
</g>
<!-- AbsSensor_or_Gearbox -->
<g id="node25" class="node">
<title>AbsSensor_or_Gearbox</title>
<ellipse fill="none" stroke="#000000" cx="1829.2251" cy="-879.9" rx="103.6392" ry="18"/>
<text text-anchor="middle" x="1829.2251" y="-875.7" font-family="Times,serif" font-size="14.00" fill="#000000">AbsSensor_or_Gearbox</text>
</g>
<!-- AbsSensor_or_Gearbox&#45;&gt;SignalVehicle -->
<g id="edge14" class="edge">
<title>AbsSensor_or_Gearbox&#45;&gt;SignalVehicle</title>
<path fill="none" stroke="#000000" d="M1829.2251,-861.804C1829.2251,-840.5204 1829.2251,-804.9349 1829.2251,-779.9955"/>
<polygon fill="#000000" stroke="#000000" points="1832.7252,-779.7039 1829.2251,-769.704 1825.7252,-779.704 1832.7252,-779.7039"/>
<text text-anchor="middle" x="1873.5498" y="-799.2" font-family="Times,serif" font-size="14.00" fill="#000000">speed, sin/pulse</text>
</g>
<!-- VehicleCAN&#45;&gt;CAN2 -->
<g id="edge25" class="edge">
<title>VehicleCAN&#45;&gt;CAN2</title>
<path fill="none" stroke="#000000" d="M1961.8941,-497.026C1925.8812,-468.7802 1850.1933,-411.1707 1781.2251,-370 1736.9549,-343.5728 1683.157,-318.1633 1648.1002,-302.4346"/>
<polygon fill="#000000" stroke="#000000" points="1649.2917,-299.1338 1638.7328,-298.2622 1646.4435,-305.5282 1649.2917,-299.1338"/>
<text text-anchor="middle" x="2055.3128" y="-433" font-family="Times,serif" font-size="14.00" fill="#000000">_VEHICLE_PARA: stVehicleParas,</text>
<text text-anchor="middle" x="2055.3128" y="-416.2" font-family="Times,serif" font-size="14.00" fill="#000000"> &#160;&#160;&#160;vehicle_speed, fVehicleSpeed,</text>
<text text-anchor="middle" x="2055.3128" y="-399.4" font-family="Times,serif" font-size="14.00" fill="#000000"> &#160;&#160;&#160;BrakeFlag, kongdangFlag, shoudBrakeFlag</text>
</g>
<!-- StereoCamera&#45;&gt;CAN0 -->
<g id="edge21" class="edge">
<title>StereoCamera&#45;&gt;CAN0</title>
<path fill="none" stroke="#000000" d="M839.5825,-502.3371C856.0367,-495.8793 872.5529,-485.9577 882.2251,-470.8 906.3239,-433.0338 912.1764,-403.316 882.2251,-370 871.0193,-357.5353 821.3357,-371.0459 807.2251,-362 789.9191,-350.9055 778.372,-330.5814 771.3119,-313.7986"/>
<polygon fill="#000000" stroke="#000000" points="774.5518,-312.4731 767.6638,-304.4229 768.0282,-315.0114 774.5518,-312.4731"/>
<text text-anchor="middle" x="976.871" y="-441.4" font-family="Times,serif" font-size="14.00" fill="#000000">obstacle_Basic_data:</text>
<text text-anchor="middle" x="976.871" y="-424.6" font-family="Times,serif" font-size="14.00" fill="#000000"> &#160;&#160;&#160;ObstacleNumber, </text>
<text text-anchor="middle" x="976.871" y="-407.8" font-family="Times,serif" font-size="14.00" fill="#000000"> &#160;&#160;&#160;HMWAlarmThreshold, </text>
<text text-anchor="middle" x="976.871" y="-391" font-family="Times,serif" font-size="14.00" fill="#000000"> &#160;&#160;&#160;</text>
</g>
<!-- StereoCamera&#45;&gt;CAN0 -->
<g id="edge22" class="edge">
<title>StereoCamera&#45;&gt;CAN0</title>
<path fill="none" stroke="#000000" d="M851.5791,-508.0649C925.7447,-500.3642 1041.2231,-486.0932 1054.2251,-470.8 1083.2433,-436.6682 1085.3865,-402.187 1054.2251,-370 1035.1256,-350.2719 830.8732,-375.9555 807.2251,-362 789.4111,-351.4874 777.8516,-330.9417 770.9143,-313.9194"/>
<polygon fill="#000000" stroke="#000000" points="774.1366,-312.5438 767.3516,-304.4066 767.5813,-314.999 774.1366,-312.5438"/>
<text text-anchor="middle" x="1139.3931" y="-458.2" font-family="Times,serif" font-size="14.00" fill="#000000">obstacle_info:</text>
<text text-anchor="middle" x="1139.3931" y="-441.4" font-family="Times,serif" font-size="14.00" fill="#000000"> &#160;&#160;&#160;TrackNumber,W,H,</text>
<text text-anchor="middle" x="1139.3931" y="-424.6" font-family="Times,serif" font-size="14.00" fill="#000000"> &#160;&#160;&#160;RelativeSpeedZ,X,</text>
<text text-anchor="middle" x="1139.3931" y="-407.8" font-family="Times,serif" font-size="14.00" fill="#000000"> &#160;&#160;&#160;DistanceX,Y,Z,</text>
<text text-anchor="middle" x="1139.3931" y="-391" font-family="Times,serif" font-size="14.00" fill="#000000"> &#160;&#160;&#160;HMW,TTC,CIPV,</text>
<text text-anchor="middle" x="1139.3931" y="-374.2" font-family="Times,serif" font-size="14.00" fill="#000000"> &#160;&#160;&#160;</text>
</g>
<!-- StereoCamera&#45;&gt;CAN0 -->
<g id="edge23" class="edge">
<title>StereoCamera&#45;&gt;CAN0</title>
<path fill="none" stroke="#000000" d="M724.0036,-511.7453C570.4922,-506.1223 197.8476,-490.5026 179.4915,-470.8 148.953,-438.0213 148.0496,-401.9131 179.4915,-370 189.9759,-359.3585 704.2937,-369.4795 717.2251,-362 735.1304,-351.6437 746.6846,-331.0889 753.5966,-314.0234"/>
<polygon fill="#000000" stroke="#000000" points="756.9396,-315.0751 757.1428,-304.4822 750.3782,-312.6364 756.9396,-315.0751"/>
<text text-anchor="middle" x="312.5919" y="-449.8" font-family="Times,serif" font-size="14.00" fill="#000000">camera_data:</text>
<text text-anchor="middle" x="312.5919" y="-433" font-family="Times,serif" font-size="14.00" fill="#000000"> &#160;&#160;&#160;LeftLDW, RightLDW, LDWSentivity,</text>
<text text-anchor="middle" x="312.5919" y="-416.2" font-family="Times,serif" font-size="14.00" fill="#000000"> &#160;&#160;&#160;Invalid, OffSound, ErrorCode,</text>
<text text-anchor="middle" x="312.5919" y="-399.4" font-family="Times,serif" font-size="14.00" fill="#000000"> &#160;&#160;&#160;HMWGrade, HMW, HMWEnable,</text>
<text text-anchor="middle" x="312.5919" y="-382.6" font-family="Times,serif" font-size="14.00" fill="#000000"> &#160;&#160;&#160;FCWLevel, AmbientLuminance, FCWStatus</text>
</g>
<!-- StereoCamera&#45;&gt;Ethernet -->
<g id="edge20" class="edge">
<title>StereoCamera&#45;&gt;Ethernet</title>
<path fill="none" stroke="#000000" stroke-dasharray="1,5" d="M723.6423,-512.6472C544.9657,-508.6437 61.3104,-495.5585 37.9347,-470.8 22.5569,-454.5125 22.2534,-385.9955 37.9347,-370 53.6226,-353.9978 421.4483,-372.5385 441.2251,-362 460.6803,-351.6329 474.5283,-330.5854 483.1788,-313.3253"/>
<polygon fill="#000000" stroke="#000000" points="486.3728,-314.7575 487.4525,-304.2178 480.0358,-311.7839 486.3728,-314.7575"/>
<text text-anchor="middle" x="94.3703" y="-441.4" font-family="Times,serif" font-size="14.00" fill="#000000">YUV</text>
<text text-anchor="middle" x="94.3703" y="-424.6" font-family="Times,serif" font-size="14.00" fill="#000000">obstacle_Basic_data</text>
<text text-anchor="middle" x="94.3703" y="-407.8" font-family="Times,serif" font-size="14.00" fill="#000000">obstacle_info</text>
<text text-anchor="middle" x="94.3703" y="-391" font-family="Times,serif" font-size="14.00" fill="#000000">camera_data</text>
</g>
<!-- Display&#45;&gt;CAN4 -->
<g id="edge27" class="edge">
<title>Display&#45;&gt;CAN4</title>
<path fill="none" stroke="#000000" d="M667.1898,-113.0315C771.365,-121.2744 1112.3151,-149.4547 1128.2251,-166.4 1150.9136,-190.5649 1147.7472,-230.9665 1142.0816,-258.1368"/>
<polygon fill="#000000" stroke="#000000" points="1138.6002,-257.656 1139.7479,-268.1885 1145.4188,-259.2392 1138.6002,-257.656"/>
<text text-anchor="middle" x="1196.9397" y="-212.6" font-family="Times,serif" font-size="14.00" fill="#000000">isAEBTaskClose, </text>
<text text-anchor="middle" x="1196.9397" y="-195.8" font-family="Times,serif" font-size="14.00" fill="#000000">isLDWTaskClose</text>
</g>
</g>
</svg>
